<svg width="445" height="158" viewBox="0 0 445 158" fill="none" xmlns="http://www.w3.org/2000/svg">
<path d="M440.5 79.2512C440.5 86.6327 434.613 93.8033 423.611 100.426C412.639 107.03 396.729 112.995 377.026 118.011C337.627 128.042 283.17 134.251 223 134.251C162.83 134.251 108.373 128.042 68.9741 118.011C49.2706 112.995 33.361 107.03 22.3894 100.426C11.3867 93.8033 5.5 86.6327 5.5 79.2512C5.5 71.8697 11.3867 64.6991 22.3894 58.0765C33.361 51.4725 49.2706 45.5076 68.9741 40.4913C108.373 30.4608 162.83 24.2512 223 24.2512C283.17 24.2512 337.627 30.4608 377.026 40.4913C396.729 45.5076 412.639 51.4725 423.611 58.0765C434.613 64.6991 440.5 71.8697 440.5 79.2512Z" stroke="#8E110F"/>
<path d="M438.475 55.1564C439.277 62.4846 434.21 70.243 424.004 78.0134C413.827 85.7618 398.677 93.4122 379.656 100.533C341.622 114.771 288.222 126.852 228.474 133.388C168.726 139.925 113.976 139.675 73.7636 133.997C53.6534 131.157 37.2075 126.963 25.5955 121.598C13.9507 116.218 7.32673 109.739 6.52505 102.411C5.72337 95.0825 10.7898 87.324 20.996 79.5536C31.1734 71.8052 46.3235 64.1548 65.344 57.0341C103.378 42.7955 156.778 30.7149 216.526 24.1786C276.275 17.6423 331.024 17.8916 371.236 23.5703C391.347 26.4102 407.792 30.604 419.404 35.9688C431.049 41.3486 437.673 47.8282 438.475 55.1564Z" stroke="#8E110F"/>
</svg>
