<svg width="371" height="132" viewBox="0 0 371 132" fill="none" xmlns="http://www.w3.org/2000/svg">
<path d="M366.5 65.9868C366.5 72.1265 361.619 78.1133 352.439 83.6587C343.289 89.1858 330.016 94.181 313.57 98.3828C280.685 106.785 235.229 111.987 185 111.987C134.771 111.987 89.3149 106.785 56.4303 98.3828C39.9843 94.181 26.7109 89.1858 17.561 83.6587C8.38061 78.1133 3.5 72.1265 3.5 65.9868C3.5 59.8471 8.38061 53.8604 17.561 48.3149C26.7109 42.7878 39.9843 37.7927 56.4303 33.5908C89.3149 25.189 134.771 19.9868 185 19.9868C235.229 19.9868 280.685 25.189 313.57 33.5908C330.016 37.7927 343.289 42.7878 352.439 48.3149C361.619 53.8604 366.5 59.8471 366.5 65.9868Z" stroke="#8E110F"/>
<path d="M365.477 45.9932C366.141 52.0563 361.95 58.4993 353.445 64.9741C344.969 71.427 332.347 77.8018 316.493 83.737C284.792 95.6048 240.279 105.675 190.471 111.124C140.664 116.573 95.0258 116.365 61.5089 111.632C44.7465 109.265 31.0445 105.77 21.3741 101.302C11.6708 96.8189 6.18592 91.4344 5.52264 85.3714C4.85936 79.3084 9.05032 72.8653 17.5549 66.3905C26.0306 59.9376 38.6529 53.5628 54.507 47.6276C86.2078 35.7598 130.721 25.6892 180.529 20.2404C230.336 14.7916 275.974 14.9998 309.491 19.7329C326.253 22.1 339.955 25.595 349.626 30.0628C359.329 34.5457 364.814 39.9302 365.477 45.9932Z" stroke="#8E110F"/>
</svg>
