<svg width="96" height="87" viewBox="0 0 96 87" fill="none" xmlns="http://www.w3.org/2000/svg">
<path d="M49.24 21C49.384 21 49.456 21.144 49.456 21.432C49.456 21.72 49.384 21.864 49.24 21.864C47.608 21.864 46.24 22.224 45.136 22.944C44.08 23.616 43.144 24.912 42.328 26.832L26.488 65.928C26.44 66.12 26.176 66.216 25.696 66.216C25.312 66.216 25.048 66.12 24.904 65.928L7.12 26.976C6.304 25.104 5.416 23.784 4.456 23.016C3.544 22.248 2.344 21.864 0.856 21.864C0.712 21.864 0.64 21.72 0.64 21.432C0.64 21.144 0.712 21 0.856 21L3.952 21.072C5.296 21.168 6.304 21.216 6.976 21.216C8.368 21.216 10.024 21.168 11.944 21.072L15.04 21C15.184 21 15.256 21.144 15.256 21.432C15.256 21.72 15.184 21.864 15.04 21.864C13.552 21.864 12.424 22.032 11.656 22.368C10.936 22.704 10.576 23.28 10.576 24.096C10.576 24.672 10.792 25.392 11.224 26.256L26.92 60.888L40.816 26.4C41.152 25.584 41.32 24.888 41.32 24.312C41.32 23.448 40.864 22.824 39.952 22.44C39.088 22.056 37.648 21.864 35.632 21.864C35.488 21.864 35.416 21.72 35.416 21.432C35.416 21.144 35.488 21 35.632 21L38.512 21.072C40.144 21.168 41.584 21.216 42.832 21.216C43.84 21.216 44.968 21.168 46.216 21.072L49.24 21ZM94.7434 65.136C94.8874 65.136 94.9594 65.28 94.9594 65.568C94.9594 65.856 94.8874 66 94.7434 66H86.6794C84.9994 66 83.9914 65.904 83.6554 65.712C83.3194 65.52 82.4314 64.416 80.9914 62.4C79.5994 60.384 77.8954 58.104 75.8794 55.56L64.4314 41.376L61.9114 43.824V60.168C61.9114 61.656 62.0554 62.736 62.3434 63.408C62.6794 64.08 63.2794 64.536 64.1434 64.776C65.0074 65.016 66.3994 65.136 68.3194 65.136C68.4154 65.136 68.4634 65.28 68.4634 65.568C68.4634 65.856 68.4154 66 68.3194 66C66.8794 66 65.7274 65.976 64.8634 65.928L59.9674 65.856L55.2154 65.928C54.3514 65.976 53.1514 66 51.6154 66C51.5194 66 51.4714 65.856 51.4714 65.568C51.4714 65.28 51.5194 65.136 51.6154 65.136C53.4874 65.136 54.8554 65.016 55.7194 64.776C56.6314 64.536 57.2554 64.08 57.5914 63.408C57.9274 62.688 58.0954 61.608 58.0954 60.168V26.832C58.0954 25.392 57.9274 24.336 57.5914 23.664C57.3034 22.992 56.7034 22.536 55.7914 22.296C54.9274 22.008 53.5594 21.864 51.6874 21.864C51.5914 21.864 51.5434 21.72 51.5434 21.432C51.5434 21.144 51.5914 21 51.6874 21L55.2154 21.072C57.2314 21.168 58.8154 21.216 59.9674 21.216C61.2634 21.216 62.9194 21.168 64.9354 21.072L68.3194 21C68.4154 21 68.4634 21.144 68.4634 21.432C68.4634 21.72 68.4154 21.864 68.3194 21.864C66.4474 21.864 65.0554 22.008 64.1434 22.296C63.2794 22.584 62.6794 23.088 62.3434 23.808C62.0554 24.48 61.9114 25.536 61.9114 26.976V42.168L77.7514 26.4C79.3834 24.768 80.1994 23.64 80.1994 23.016C80.1994 22.584 79.8634 22.296 79.1914 22.152C78.5674 21.96 77.5114 21.864 76.0234 21.864C75.9274 21.864 75.8794 21.72 75.8794 21.432C75.8794 21.144 75.9274 21 76.0234 21L79.0474 21.072C80.8714 21.168 82.5754 21.216 84.1594 21.216C85.6474 21.216 87.2074 21.168 88.8394 21.072L91.3594 21C91.5034 21 91.5754 21.144 91.5754 21.432C91.5754 21.72 91.5034 21.864 91.3594 21.864C89.3914 21.864 87.3514 22.248 85.2394 23.016C83.1754 23.736 81.2314 25.008 79.4074 26.832L67.1674 38.784L77.4634 51.744C81.1114 56.304 83.8954 59.52 85.8154 61.392C87.7354 63.264 89.1994 64.368 90.2074 64.704C91.2154 64.992 92.7274 65.136 94.7434 65.136Z" fill="#E5E5E5"/>
<mask id="path-2-inside-1_34_25" fill="white">
<path d="M33.2821 41.2947C30.1241 43.1394 27.6841 44.9304 26.2539 46.4534C24.8236 47.9765 24.4637 49.1671 25.2172 49.8831C25.9706 50.599 27.8055 50.8098 30.5024 50.4904C33.1994 50.171 36.6442 49.3349 40.4249 48.0819C44.2057 46.829 48.1623 45.2124 51.8218 43.4253C55.4812 41.6383 58.6885 39.7564 61.0601 38.0049C63.4317 36.2534 64.8673 34.7062 65.1951 33.5485C65.5229 32.3908 64.7291 31.6715 62.9087 31.4767L62.4047 31.7462C64.1738 31.9356 64.9452 32.6346 64.6266 33.7596C64.3081 34.8846 62.913 36.3881 60.6083 38.0902C58.3036 39.7924 55.1868 41.6211 51.6307 43.3577C48.0745 45.0943 44.2295 46.6654 40.5554 47.8829C36.8814 49.1005 33.5338 49.9131 30.9129 50.2235C28.2921 50.5339 26.509 50.3289 25.7768 49.6332C25.0446 48.9375 25.3944 47.7804 26.7843 46.3004C28.1741 44.8203 30.5453 43.0799 33.6141 41.2873L33.2821 41.2947Z"/>
</mask>
<path d="M33.2821 41.2947C30.1241 43.1394 27.6841 44.9304 26.2539 46.4534C24.8236 47.9765 24.4637 49.1671 25.2172 49.8831C25.9706 50.599 27.8055 50.8098 30.5024 50.4904C33.1994 50.171 36.6442 49.3349 40.4249 48.0819C44.2057 46.829 48.1623 45.2124 51.8218 43.4253C55.4812 41.6383 58.6885 39.7564 61.0601 38.0049C63.4317 36.2534 64.8673 34.7062 65.1951 33.5485C65.5229 32.3908 64.7291 31.6715 62.9087 31.4767L62.4047 31.7462C64.1738 31.9356 64.9452 32.6346 64.6266 33.7596C64.3081 34.8846 62.913 36.3881 60.6083 38.0902C58.3036 39.7924 55.1868 41.6211 51.6307 43.3577C48.0745 45.0943 44.2295 46.6654 40.5554 47.8829C36.8814 49.1005 33.5338 49.9131 30.9129 50.2235C28.2921 50.5339 26.509 50.3289 25.7768 49.6332C25.0446 48.9375 25.3944 47.7804 26.7843 46.3004C28.1741 44.8203 30.5453 43.0799 33.6141 41.2873L33.2821 41.2947Z" stroke="white" stroke-width="4" mask="url(#path-2-inside-1_34_25)"/>
</svg>
