<svg width="32" height="32" viewBox="0 0 32 32" fill="none" xmlns="http://www.w3.org/2000/svg">
<path d="M16 8.66667C14.5496 8.66667 13.1318 9.09676 11.9258 9.90256C10.7199 10.7084 9.77993 11.8537 9.22488 13.1937C8.66984 14.5336 8.52462 16.0081 8.80758 17.4307C9.09053 18.8532 9.78897 20.1599 10.8146 21.1855C11.8401 22.211 13.1468 22.9095 14.5693 23.1924C15.9919 23.4754 17.4664 23.3302 18.8063 22.7751C20.1463 22.2201 21.2916 21.2801 22.0974 20.0742C22.9032 18.8682 23.3333 17.4504 23.3333 16C23.3311 14.0558 22.5578 12.1918 21.183 10.817C19.8082 9.44219 17.9442 8.66886 16 8.66667ZM16 22C14.8133 22 13.6533 21.6481 12.6666 20.9888C11.6799 20.3295 10.9108 19.3925 10.4567 18.2961C10.0026 17.1997 9.88378 15.9933 10.1153 14.8295C10.3468 13.6656 10.9182 12.5965 11.7574 11.7574C12.5965 10.9182 13.6656 10.3468 14.8295 10.1153C15.9933 9.88378 17.1997 10.0026 18.2961 10.4567C19.3925 10.9108 20.3295 11.6799 20.9888 12.6666C21.6481 13.6533 22 14.8133 22 16C21.9982 17.5907 21.3655 19.1158 20.2407 20.2407C19.1158 21.3655 17.5907 21.9982 16 22ZM23.3333 0H8.66667C6.36892 0.00260263 4.16603 0.916531 2.54128 2.54128C0.916531 4.16603 0.00260263 6.36892 0 8.66667V23.3333C0.00260263 25.6311 0.916531 27.834 2.54128 29.4587C4.16603 31.0835 6.36892 31.9974 8.66667 32H23.3333C25.6311 31.9974 27.834 31.0835 29.4587 29.4587C31.0835 27.834 31.9974 25.6311 32 23.3333V8.66667C31.9974 6.36892 31.0835 4.16603 29.4587 2.54128C27.834 0.916531 25.6311 0.00260263 23.3333 0ZM30.6667 23.3333C30.6645 25.2776 29.8911 27.1416 28.5164 28.5164C27.1416 29.8911 25.2776 30.6645 23.3333 30.6667H8.66667C6.72242 30.6645 4.85843 29.8911 3.48364 28.5164C2.10885 27.1416 1.33553 25.2776 1.33333 23.3333V8.66667C1.33553 6.72242 2.10885 4.85843 3.48364 3.48364C4.85843 2.10885 6.72242 1.33553 8.66667 1.33333H23.3333C25.2776 1.33553 27.1416 2.10885 28.5164 3.48364C29.8911 4.85843 30.6645 6.72242 30.6667 8.66667V23.3333ZM26 7.33333C26 7.59704 25.9218 7.85483 25.7753 8.07409C25.6288 8.29336 25.4205 8.46426 25.1769 8.56517C24.9333 8.66609 24.6652 8.69249 24.4065 8.64105C24.1479 8.5896 23.9103 8.46261 23.7239 8.27614C23.5374 8.08967 23.4104 7.8521 23.359 7.59345C23.3075 7.33481 23.3339 7.06672 23.4348 6.82309C23.5357 6.57945 23.7066 6.37122 23.9259 6.22471C24.1452 6.0782 24.403 6 24.6667 6C25.0202 6.0004 25.3591 6.14101 25.609 6.39097C25.859 6.64093 25.9996 6.97984 26 7.33333Z" fill="#8E110F"/>
</svg>
