<svg width="32" height="33" viewBox="0 0 32 33" fill="none" xmlns="http://www.w3.org/2000/svg">
<path d="M16 9.44848C14.5496 9.44848 13.1318 9.87712 11.9258 10.6802C10.7199 11.4833 9.77993 12.6247 9.22488 13.9602C8.66984 15.2957 8.52462 16.7652 8.80758 18.1829C9.09053 19.6006 9.78897 20.9029 10.8146 21.925C11.8401 22.9472 13.1468 23.6432 14.5693 23.9253C15.9919 24.2073 17.4664 24.0625 18.8063 23.5093C20.1463 22.9562 21.2916 22.0194 22.0974 20.8175C22.9032 19.6156 23.3333 18.2026 23.3333 16.7571C23.3311 14.8194 22.5578 12.9617 21.183 11.5915C19.8082 10.2214 17.9442 9.45066 16 9.44848ZM16 22.7368C14.8133 22.7368 13.6533 22.3861 12.6666 21.7291C11.6799 21.072 10.9108 20.1381 10.4567 19.0454C10.0026 17.9528 9.88378 16.7504 10.1153 15.5905C10.3468 14.4305 10.9182 13.365 11.7574 12.5287C12.5965 11.6925 13.6656 11.1229 14.8295 10.8922C15.9933 10.6615 17.1997 10.7799 18.2961 11.2325C19.3925 11.6851 20.3295 12.4515 20.9888 13.4349C21.6481 14.4183 22 15.5744 22 16.7571C21.9982 18.3425 21.3655 19.8624 20.2407 20.9834C19.1158 22.1045 17.5907 22.7351 16 22.7368ZM23.3333 0.811035H8.66667C6.36892 0.813629 4.16603 1.72448 2.54128 3.34375C0.916531 4.96302 0.00260263 7.15848 0 9.44848V24.0657C0.00260263 26.3557 0.916531 28.5511 2.54128 30.1704C4.16603 31.7897 6.36892 32.7005 8.66667 32.7031H23.3333C25.6311 32.7005 27.834 31.7897 29.4587 30.1704C31.0835 28.5511 31.9974 26.3557 32 24.0657V9.44848C31.9974 7.15848 31.0835 4.96302 29.4587 3.34375C27.834 1.72448 25.6311 0.813629 23.3333 0.811035ZM30.6667 24.0657C30.6645 26.0034 29.8911 27.8611 28.5164 29.2312C27.1416 30.6014 25.2776 31.3721 23.3333 31.3743H8.66667C6.72242 31.3721 4.85843 30.6014 3.48364 29.2312C2.10885 27.8611 1.33553 26.0034 1.33333 24.0657V9.44848C1.33553 7.51079 2.10885 5.65309 3.48364 4.28293C4.85843 2.91278 6.72242 2.14206 8.66667 2.13987H23.3333C25.2776 2.14206 27.1416 2.91278 28.5164 4.28293C29.8911 5.65309 30.6645 7.51079 30.6667 9.44848V24.0657ZM26 8.11964C26 8.38246 25.9218 8.63938 25.7753 8.8579C25.6288 9.07643 25.4205 9.24675 25.1769 9.34732C24.9333 9.4479 24.6652 9.47422 24.4065 9.42294C24.1479 9.37167 23.9103 9.24511 23.7239 9.05927C23.5374 8.87343 23.4104 8.63665 23.359 8.37888C23.3075 8.12111 23.3339 7.85393 23.4348 7.61111C23.5357 7.3683 23.7066 7.16077 23.9259 7.01475C24.1452 6.86874 24.403 6.7908 24.6667 6.7908C25.0202 6.7912 25.3591 6.93134 25.609 7.18045C25.859 7.42957 25.9996 7.76733 26 8.11964Z" fill="#FFF1E2"/>
</svg>
