<svg width="43" height="33" viewBox="0 0 43 33" fill="none" xmlns="http://www.w3.org/2000/svg">
<path d="M42.0996 1.21643C42.0982 1.18603 42.0951 1.15573 42.0904 1.12566C42.0857 1.09908 42.0781 1.07382 42.071 1.04821C42.0641 1.02141 42.0559 0.994977 42.0463 0.969018C42.0356 0.942904 42.0234 0.91736 42.01 0.892488C41.9981 0.869232 41.9868 0.846028 41.9726 0.823746C41.9555 0.798009 41.9369 0.77323 41.917 0.749521C41.9054 0.735023 41.8965 0.719098 41.8838 0.70521C41.8797 0.700804 41.8747 0.697835 41.8706 0.693532C41.8484 0.671362 41.8249 0.650479 41.8002 0.630987C41.7817 0.615515 41.764 0.598766 41.7445 0.58514C41.7203 0.569376 41.6954 0.554879 41.6697 0.541708C41.6472 0.52926 41.6256 0.515429 41.6022 0.505186C41.5771 0.49412 41.5502 0.486949 41.5239 0.478344C41.4982 0.469993 41.4731 0.460363 41.4469 0.454524C41.4222 0.449043 41.3965 0.447249 41.3712 0.443972C41.3414 0.439328 41.3114 0.436316 41.2813 0.43495C41.2751 0.434796 41.2694 0.433105 41.2631 0.433105H0.842104C0.835936 0.433105 0.830387 0.434744 0.82421 0.434898C0.792914 0.436312 0.761719 0.439441 0.730768 0.444272C0.706713 0.447499 0.682347 0.44914 0.659016 0.454312C0.630976 0.461426 0.603322 0.469975 0.576164 0.479924C0.551903 0.488019 0.527027 0.494575 0.503795 0.504768C0.478713 0.515731 0.455374 0.530536 0.431221 0.544004C0.40768 0.557273 0.383431 0.569259 0.361217 0.584729C0.340966 0.598866 0.322566 0.616181 0.303343 0.632316C0.279345 0.651453 0.256389 0.671852 0.234572 0.693427C0.230461 0.697781 0.22552 0.700751 0.221414 0.705208C0.208667 0.719091 0.199827 0.735021 0.18821 0.749519C0.168324 0.77321 0.149759 0.797971 0.132598 0.823691C0.118413 0.846077 0.107002 0.869333 0.0950778 0.892589C0.0822357 0.917689 0.0692759 0.942481 0.0588949 0.968961C0.0488191 0.995035 0.0416314 1.02157 0.034223 1.04831C0.0271304 1.07392 0.0195222 1.09913 0.0147938 1.12566C0.0101028 1.15573 0.00704892 1.18603 0.00564615 1.21643C0.00442089 1.23528 0 1.25321 0 1.27237V29.8074C0.000748351 30.4749 0.267153 31.1149 0.740767 31.5869C1.21438 32.0589 1.85652 32.3244 2.52631 32.3252H39.5789C40.2487 32.3244 40.8908 32.0589 41.3645 31.5869C41.8381 31.1149 42.1045 30.4749 42.1052 29.8074V1.27237C42.1052 1.25321 42.1008 1.23528 42.0996 1.21643ZM39.0981 2.11164L21.0526 18.5977L3.00709 2.11164H39.0981ZM39.5789 30.6467H2.52631C2.30305 30.6464 2.08899 30.5579 1.93112 30.4006C1.77324 30.2432 1.68445 30.0299 1.68421 29.8074V3.18029L20.4835 20.3549C20.6389 20.4968 20.8419 20.5755 21.0526 20.5755C21.2633 20.5755 21.4664 20.4968 21.6217 20.3549L40.421 3.18029V29.8074C40.4208 30.0299 40.332 30.2432 40.1741 30.4006C40.0162 30.5579 39.8022 30.6464 39.5789 30.6467Z" fill="#FFF1E2"/>
</svg>
