<svg width="32" height="33" viewBox="0 0 32 33" fill="none" xmlns="http://www.w3.org/2000/svg">
<path d="M23.3731 32.5139C10.4851 32.5139 0 22.0643 0 9.21986C0.00208073 7.11526 0.772852 5.08339 2.16834 3.5038C3.56382 1.9242 5.48857 0.904922 7.58305 0.636357C8.01332 0.584819 8.44877 0.673538 8.82423 0.889234C9.19968 1.10493 9.49496 1.436 9.66585 1.83291L13.02 9.63258C13.1505 9.93518 13.2037 10.2653 13.1749 10.5934C13.146 10.9215 13.036 11.2373 12.8547 11.5127L10.0774 15.7421C10.0144 15.8359 9.97692 15.9443 9.96841 16.0569C9.9599 16.1694 9.98069 16.2822 10.0288 16.3844H10.0289C11.3506 19.0716 13.5368 21.2405 16.239 22.5455C16.3422 22.5931 16.4559 22.6133 16.5692 22.604C16.6825 22.5947 16.7914 22.5563 16.8853 22.4926L21.065 19.7149C21.342 19.5301 21.6611 19.4174 21.993 19.387C22.325 19.3566 22.6593 19.4095 22.9655 19.5408L30.7851 22.8807C31.1833 23.0511 31.5154 23.3454 31.7318 23.7195C31.9482 24.0937 32.0373 24.5276 31.9857 24.9563C31.7163 27.0438 30.6936 28.9621 29.1086 30.3528C27.5236 31.7436 25.4849 32.5118 23.3731 32.5139ZM7.82988 1.95201C7.80334 1.95199 7.77682 1.95368 7.75049 1.95705C5.97845 2.18441 4.35007 3.04694 3.16955 4.3835C1.98903 5.72007 1.33712 7.43924 1.3356 9.21986C1.3356 21.3303 11.2216 31.1828 23.3731 31.1828C25.1598 31.1813 26.8848 30.5316 28.2259 29.355C29.567 28.1785 30.4324 26.5556 30.6605 24.7895C30.6768 24.6473 30.6465 24.5038 30.5741 24.3803C30.5016 24.2568 30.3911 24.1599 30.2588 24.1043L22.4395 20.7644C22.3374 20.7206 22.226 20.7031 22.1153 20.7132C22.0046 20.7233 21.8982 20.7608 21.8058 20.8224L17.6262 23.6001C17.3388 23.7919 17.0063 23.906 16.6614 23.9313C16.3164 23.9566 15.9708 23.8922 15.6583 23.7444C12.6865 22.309 10.2823 19.9237 8.82865 16.9685L8.82882 16.9687C8.67963 16.6591 8.6133 16.3164 8.63627 15.9737C8.65924 15.6311 8.77073 15.3002 8.9599 15.0132L11.7372 10.7838C11.7977 10.692 11.8344 10.5866 11.844 10.4772C11.8536 10.3678 11.8359 10.2577 11.7924 10.1568L8.43818 2.35741C8.38739 2.23816 8.30278 2.13628 8.19472 2.06426C8.08667 1.99225 7.95987 1.95324 7.82988 1.95201Z" fill="#FFF1E2"/>
</svg>
