<svg width="36" height="32" viewBox="0 0 36 32" fill="none" xmlns="http://www.w3.org/2000/svg">
<path d="M34.7617 0.493525C34.4805 0.25142 34.1383 0.0906458 33.7719 0.0286378C33.4056 -0.0333702 33.0293 0.00575476 32.6837 0.14177L1.29461 12.4317C0.88428 12.5923 0.537179 12.8811 0.305248 13.2547C0.0733175 13.6284 -0.030972 14.0668 0.00798607 14.5045C0.0469442 14.9421 0.227055 15.3555 0.521366 15.6826C0.815678 16.0097 1.20836 16.233 1.64066 16.3192L10.1606 18.0175V28.4985C10.1563 28.9017 10.2743 29.2969 10.4991 29.6321C10.7239 29.9674 11.045 30.2273 11.4205 30.3776C11.672 30.4826 11.9418 30.537 12.2145 30.5377C12.4809 30.5369 12.7446 30.4833 12.9901 30.3801C13.2356 30.277 13.4581 30.1262 13.6447 29.9367L18.5083 25.0895L25.6844 31.3832C26.0542 31.7106 26.5315 31.8916 27.026 31.8921C27.241 31.8918 27.4547 31.8581 27.6592 31.7919C27.9965 31.6853 28.2998 31.4925 28.539 31.2325C28.7781 30.9726 28.9447 30.6547 29.022 30.3106L35.4193 2.48934C35.5028 2.12853 35.4857 1.75182 35.3698 1.40002C35.2539 1.04822 35.0436 0.734737 34.7617 0.493525ZM1.36329 14.3846C1.34637 14.2382 1.3795 14.0903 1.45734 13.9649C1.53517 13.8395 1.65316 13.744 1.79223 13.6937L30.5652 2.42805L10.6831 16.7389L1.90749 14.9896C1.76171 14.9645 1.6287 14.8911 1.52995 14.7813C1.4312 14.6715 1.37248 14.5318 1.36329 14.3846ZM12.6825 28.9779C12.5874 29.0727 12.4662 29.1373 12.3342 29.1635C12.2023 29.1896 12.0655 29.1762 11.9412 29.1249C11.8169 29.0736 11.7106 28.9867 11.6359 28.8752C11.5611 28.7637 11.5212 28.6326 11.5212 28.4985V18.9615L17.4848 24.1919L12.6825 28.9779ZM34.0931 2.18642L27.6958 30.0077C27.6695 30.1222 27.6137 30.2278 27.5341 30.3144C27.4545 30.401 27.3536 30.4654 27.2415 30.5015C27.1293 30.5375 27.0097 30.5439 26.8943 30.52C26.7789 30.4961 26.6717 30.4428 26.5832 30.3652L11.9303 17.514L33.9831 1.64075C34.0411 1.71776 34.0811 1.80674 34.1002 1.90116C34.1192 1.99558 34.1168 2.09305 34.0931 2.18642Z" fill="#FFF1E2"/>
</svg>
