<svg width="28" height="32" viewBox="0 0 28 32" fill="none" xmlns="http://www.w3.org/2000/svg">
<path d="M27.35 8.51904V12.632C25.7141 12.5092 24.1012 12.1285 22.637 11.4386L22.6371 11.4385L22.6264 11.4338C21.9097 11.1116 21.232 10.6922 20.5374 10.2414L19.5363 9.59156L19.5335 10.7851C19.5304 12.1142 19.5313 13.4406 19.5322 14.7651C19.5339 17.3262 19.5356 19.88 19.5085 22.4323C19.4079 24.1755 18.827 25.9058 17.8126 27.3329L17.8126 27.3329L17.8067 27.3415C16.1675 29.7278 13.3132 31.2873 10.3953 31.3358L10.3823 31.336L10.3693 31.3368C8.58847 31.4378 6.79574 30.9555 5.25863 30.0557C2.72383 28.5715 0.942743 25.8534 0.680083 22.9565C0.649272 22.3131 0.639026 21.6779 0.664084 21.0617C0.893785 18.6993 2.07504 16.4362 3.90151 14.8991L3.90155 14.8991L3.90816 14.8934C5.85631 13.2087 8.53529 12.3534 11.0936 12.6631C11.098 13.6046 11.0819 14.531 11.0656 15.4653C11.0556 16.0412 11.0455 16.6201 11.0402 17.2075C9.76184 17.003 8.37979 17.2217 7.27195 17.982C6.30452 18.6075 5.57571 19.5556 5.19303 20.6242C4.90451 21.3381 4.9351 22.1244 4.95862 22.729C4.96255 22.8301 4.96629 22.9261 4.9683 23.0158L4.96919 23.0556L4.97495 23.0951C5.33857 25.5872 7.72649 27.6953 10.3505 27.4791C12.0776 27.4513 13.703 26.4615 14.5899 25.0259L14.5958 25.0163L14.6014 25.0065C14.621 24.9721 14.6419 24.9361 14.6638 24.8984C14.8892 24.5099 15.2154 23.9475 15.2372 23.2954C15.3341 21.5393 15.3323 19.7809 15.3305 18.0414C15.3298 17.4 15.3292 16.7613 15.3335 16.1263L15.3335 16.1232C15.3375 14.1923 15.3365 12.2654 15.3356 10.3407C15.334 7.11292 15.3324 3.89157 15.3541 0.668882C16.1444 0.660898 16.9273 0.659881 17.7124 0.658861C18.2593 0.65815 18.8072 0.657439 19.3594 0.65437C19.5782 2.61804 20.3617 4.59591 21.8545 6.02936C23.3537 7.50435 25.3839 8.22315 27.35 8.51904Z" stroke="#8E110F" stroke-width="1.3"/>
</svg>
